<?xml version="1.0" encoding="utf-8"?>
<svg viewBox="0 0 500 500" xmlns="http://www.w3.org/2000/svg">
  <defs>
    <linearGradient gradientUnits="userSpaceOnUse" x1="250" y1="17.525" x2="250" y2="482.165" id="gradient-0" gradientTransform="matrix(1.011537, 0, 0, 1.011536, -2.883964, -2.727174)">
      <stop offset="0" style="stop-color: rgba(14, 164, 233, 1)"/>
      <stop offset="1" style="stop-color: rgba(8, 96, 137, 1)"/>
    </linearGradient>
    <filter id="inner-shadow-filter-0" color-interpolation-filters="sRGB" x="-500%" y="-500%" width="1000%" height="1000%">
      <feOffset dx="0" dy="0"/>
      <feGaussianBlur stdDeviation="19"/>
      <feComposite operator="out" in="SourceGraphic"/>
      <feComponentTransfer result="choke">
        <feFuncA type="linear" slope="1.04"/>
      </feComponentTransfer>
      <feFlood flood-color="rgba(0,0,0,0.7)" result="color"/>
      <feComposite operator="in" in="color" in2="choke" result="shadow"/>
      <feComposite operator="over" in="shadow" in2="SourceGraphic"/>
    </filter>
    <filter id="drop-shadow-filter-1" color-interpolation-filters="sRGB" x="-500%" y="-500%" width="1000%" height="1000%">
      <feGaussianBlur in="SourceAlpha" stdDeviation="5"/>
      <feOffset dx="0" dy="0"/>
      <feComponentTransfer result="offsetblur">
        <feFuncA id="spread-ctrl" type="linear" slope="0.88"/>
      </feComponentTransfer>
      <feFlood flood-color="rgba(0,0,0,1)"/>
      <feComposite in2="offsetblur" operator="in"/>
      <feMerge>
        <feMergeNode/>
        <feMergeNode in="SourceGraphic"/>
      </feMerge>
    </filter>
    <filter id="drop-shadow-filter-0" color-interpolation-filters="sRGB" x="-500%" y="-500%" width="1000%" height="1000%">
      <feGaussianBlur in="SourceAlpha" stdDeviation="4"/>
      <feOffset dx="7" dy="7"/>
      <feComponentTransfer result="offsetblur">
        <feFuncA id="spread-ctrl" type="linear" slope="1"/>
      </feComponentTransfer>
      <feFlood flood-color="rgba(0,0,0,0.3)"/>
      <feComposite in2="offsetblur" operator="in"/>
      <feMerge>
        <feMergeNode/>
        <feMergeNode in="SourceGraphic"/>
      </feMerge>
    </filter>
  </defs>
  <ellipse style="fill: url(#gradient-0); filter: url(#inner-shadow-filter-0) url(#drop-shadow-filter-1);" cx="250" cy="250" rx="235" ry="235"/>
  <path d="M 76.89 184.177 L 124.967 184.177 Q 141.23 184.177 149.761 186.665 Q 161.225 190.042 169.401 198.662 Q 177.577 207.282 181.842 219.768 Q 186.108 232.254 186.108 250.561 Q 186.108 266.645 182.109 278.287 Q 177.221 292.506 168.157 301.304 Q 161.314 307.969 149.673 311.701 Q 140.964 314.456 126.389 314.456 L 76.89 314.456 Z M 103.195 206.216 L 103.195 292.506 L 122.835 292.506 Q 133.854 292.506 138.742 291.262 Q 145.14 289.662 149.362 285.841 Q 153.583 282.02 156.249 273.266 Q 158.915 264.513 158.915 249.405 Q 158.915 234.298 156.249 226.211 Q 153.583 218.124 148.784 213.592 Q 143.985 209.06 136.609 207.46 Q 131.099 206.216 115.014 206.216 Z M 209.404 314.456 L 209.404 184.177 L 306.003 184.177 L 306.003 206.216 L 235.709 206.216 L 235.709 235.098 L 301.115 235.098 L 301.115 257.048 L 235.709 257.048 L 235.709 292.506 L 308.491 292.506 L 308.491 314.456 Z M 365.041 314.456 L 318.474 184.177 L 347 184.177 L 379.97 280.598 L 411.874 184.177 L 439.778 184.177 L 393.123 314.456 Z" style="fill: rgb(255, 255, 255); white-space: pre; filter: url(#drop-shadow-filter-0);"/>
</svg>