<?xml version="1.0" encoding="utf-8"?>
<svg viewBox="0 0 500 500" xmlns="http://www.w3.org/2000/svg">
  <defs>
    <linearGradient gradientUnits="userSpaceOnUse" x1="250" y1="17.525" x2="250" y2="482.165" id="gradient-0" gradientTransform="matrix(1.011537, 0, 0, 1.011536, -2.883964, -2.727174)">
      <stop offset="0" style="stop-color: rgba(139, 69, 193, 1)"/>
      <stop offset="1" style="stop-color: rgba(79, 70, 229, 1)"/>
    </linearGradient>
    <filter id="inner-shadow-filter-0" color-interpolation-filters="sRGB" x="-500%" y="-500%" width="1000%" height="1000%">
      <feOffset dx="0" dy="0"/>
      <feGaussianBlur stdDeviation="19"/>
      <feComposite operator="out" in="SourceGraphic"/>
      <feComponentTransfer result="choke">
        <feFuncA type="linear" slope="1.04"/>
      </feComponentTransfer>
      <feFlood flood-color="rgba(0,0,0,0.7)" result="color"/>
      <feComposite operator="in" in="color" in2="choke" result="shadow"/>
      <feComposite operator="over" in="shadow" in2="SourceGraphic"/>
    </filter>
    <filter id="drop-shadow-filter-1" color-interpolation-filters="sRGB" x="-500%" y="-500%" width="1000%" height="1000%">
      <feGaussianBlur in="SourceAlpha" stdDeviation="5"/>
      <feOffset dx="0" dy="0"/>
      <feComponentTransfer result="offsetblur">
        <feFuncA id="spread-ctrl" type="linear" slope="0.88"/>
      </feComponentTransfer>
      <feFlood flood-color="rgba(0,0,0,1)"/>
      <feComposite in2="offsetblur" operator="in"/>
      <feMerge>
        <feMergeNode/>
        <feMergeNode in="SourceGraphic"/>
      </feMerge>
    </filter>
    <filter id="drop-shadow-filter-0" color-interpolation-filters="sRGB" x="-500%" y="-500%" width="1000%" height="1000%">
      <feGaussianBlur in="SourceAlpha" stdDeviation="4"/>
      <feOffset dx="7" dy="7"/>
      <feComponentTransfer result="offsetblur">
        <feFuncA id="spread-ctrl" type="linear" slope="1"/>
      </feComponentTransfer>
      <feFlood flood-color="rgba(0,0,0,0.3)"/>
      <feComposite in2="offsetblur" operator="in"/>
      <feMerge>
        <feMergeNode/>
        <feMergeNode in="SourceGraphic"/>
      </feMerge>
    </filter>
  </defs>
  <ellipse style="fill: url(#gradient-0); filter: url(#inner-shadow-filter-0) url(#drop-shadow-filter-1);" cx="250" cy="250" rx="235" ry="235"/>
  <path d="M 70 200 L 100 200 Q 115 200 122 202 Q 130 205 135 210 Q 140 215 142 225 Q 144 235 144 250 Q 144 265 142 275 Q 140 285 135 290 Q 130 295 122 298 Q 115 300 100 300 L 70 300 Z M 85 215 L 85 285 L 100 285 Q 108 285 112 284 Q 118 282 122 278 Q 126 274 128 268 Q 130 262 130 250 Q 130 238 128 232 Q 126 226 122 222 Q 118 218 112 216 Q 108 215 100 215 Z
         M 160 200 L 190 200 Q 205 200 212 202 Q 220 205 225 210 Q 230 215 232 225 Q 234 235 234 250 Q 234 265 232 275 Q 230 285 225 290 Q 220 295 212 298 Q 205 300 190 300 L 160 300 Z M 175 215 L 175 285 L 190 285 Q 198 285 202 284 Q 208 282 212 278 Q 216 274 218 268 Q 220 262 220 250 Q 220 238 218 232 Q 216 226 212 222 Q 208 218 202 216 Q 198 215 190 215 Z
         M 250 300 L 250 200 L 320 200 L 320 215 L 265 215 L 265 240 L 315 240 L 315 255 L 265 255 L 265 285 L 322 285 L 322 300 Z
         M 340 300 L 340 200 L 355 200 L 355 240 L 400 240 L 400 200 L 415 200 L 415 300 L 400 300 L 400 255 L 355 255 L 355 300 Z" style="fill: rgb(255, 255, 255); white-space: pre; filter: url(#drop-shadow-filter-0);"/>
  <!-- Lightning bolt icon for electrical services -->
  <path d="M 250 150 L 270 190 L 250 190 L 270 230 L 230 190 L 250 190 Z" style="fill: rgb(255, 255, 0); filter: url(#drop-shadow-filter-0);"/>
</svg>